<?xml version="1.0" encoding="utf-8"?>
<!-- Generator: Adobe Illustrator 25.4.1, SVG Export Plug-In . SVG Version: 6.00 Build 0)  -->
<svg version="1.1" id="Capa_1" xmlns="http://www.w3.org/2000/svg" xmlns:xlink="http://www.w3.org/1999/xlink" x="0px" y="0px"
	 viewBox="0 0 133 36" style="enable-background:new 0 0 133 36;" xml:space="preserve">
<style type="text/css">
	.st0{fill-rule:evenodd;clip-rule:evenodd;fill:#EC1C27;}
	.st1{fill-rule:evenodd;clip-rule:evenodd;fill:#252C7A;}
	.st2{fill-rule:evenodd;clip-rule:evenodd;fill:#FFFFFF;}
</style>
<g>
	<path class="st2" d="M57.3,29.9l1-4.8h3.6l-0.2,0.8h-2.6l-0.2,1.1h2.5l-0.2,0.8h-2.5l-0.3,1.3h2.8l-0.2,0.8H57.3L57.3,29.9z
		 M61.8,29.9h0.9l1-4.8h-0.9L61.8,29.9L61.8,29.9z M69,28.1l1,0.2c-0.2,0.5-0.5,1-0.9,1.2c-0.4,0.3-0.8,0.4-1.4,0.4
		c-0.6,0-1.1-0.2-1.4-0.5c-0.3-0.4-0.5-0.9-0.5-1.5c0-0.5,0.1-1.1,0.3-1.5c0.2-0.5,0.5-0.8,0.9-1c0.4-0.2,0.8-0.4,1.3-0.4
		c0.5,0,0.9,0.1,1.3,0.4c0.3,0.3,0.5,0.7,0.6,1.1l-1,0.1c-0.1-0.3-0.2-0.5-0.3-0.6c-0.2-0.1-0.4-0.2-0.6-0.2c-0.3,0-0.5,0.1-0.8,0.2
		c-0.2,0.2-0.4,0.4-0.6,0.8c-0.1,0.4-0.2,0.7-0.2,1.1c0,0.4,0.1,0.7,0.3,0.9c0.2,0.2,0.4,0.3,0.7,0.3c0.3,0,0.5-0.1,0.7-0.3
		C68.8,28.7,68.9,28.5,69,28.1L69,28.1z M70.5,28.4c0-0.6,0.2-1.2,0.5-1.5c0.4-0.4,0.8-0.6,1.4-0.6c0.5,0,0.9,0.1,1.2,0.4
		c0.3,0.3,0.4,0.7,0.4,1.1c0,0.6-0.2,1.1-0.5,1.5c-0.4,0.4-0.8,0.6-1.5,0.6c-0.3,0-0.6-0.1-0.9-0.2c-0.3-0.1-0.4-0.3-0.6-0.6
		C70.6,29,70.5,28.7,70.5,28.4L70.5,28.4z M73.2,27.7c0-0.2-0.1-0.4-0.2-0.5c-0.1-0.1-0.3-0.2-0.5-0.2c-0.2,0-0.4,0.1-0.5,0.2
		c-0.2,0.1-0.3,0.3-0.4,0.5c-0.1,0.2-0.1,0.5-0.1,0.7c0,0.3,0.1,0.4,0.2,0.6c0.1,0.1,0.3,0.2,0.5,0.2c0.3,0,0.5-0.1,0.7-0.3
		C73.1,28.6,73.2,28.2,73.2,27.7L73.2,27.7z M75.2,26.4h0.9l-0.1,0.7c0.3-0.5,0.7-0.8,1.1-0.8c0.1,0,0.3,0,0.4,0.1l-0.4,0.8
		c-0.1,0-0.2,0-0.3,0c-0.2,0-0.3,0.1-0.5,0.2c-0.2,0.1-0.3,0.3-0.4,0.5c-0.1,0.2-0.2,0.5-0.3,1l-0.2,1.1h-0.9L75.2,26.4L75.2,26.4z
		 M77.8,26.4l-0.7,3.5H78l0.2-1.1c0.1-0.4,0.2-0.8,0.3-1c0.1-0.2,0.2-0.4,0.4-0.5c0.2-0.1,0.3-0.2,0.5-0.2c0.1,0,0.2,0,0.3,0
		l0.4-0.8c-0.2-0.1-0.3-0.1-0.4-0.1c-0.4,0-0.7,0.3-1.1,0.8l0.1-0.7H77.8L77.8,26.4z M83.2,28.4h-2.4c0,0,0,0.1,0,0.1
		c0,0.2,0.1,0.4,0.2,0.6c0.1,0.1,0.3,0.2,0.5,0.2c0.3,0,0.6-0.2,0.7-0.5l0.8,0.1c-0.2,0.3-0.4,0.6-0.7,0.8c-0.3,0.2-0.6,0.3-0.9,0.3
		c-0.5,0-0.9-0.1-1.1-0.4c-0.3-0.3-0.4-0.7-0.4-1.2c0-0.5,0.1-0.9,0.4-1.3c0.4-0.5,0.9-0.8,1.6-0.8c0.4,0,0.8,0.1,1,0.4
		c0.3,0.3,0.4,0.6,0.4,1.1C83.2,28,83.2,28.2,83.2,28.4L83.2,28.4z M82.4,27.8C82.4,27.8,82.4,27.8,82.4,27.8c0-0.4-0.1-0.5-0.2-0.7
		C82.1,27,81.9,27,81.7,27c-0.2,0-0.4,0.1-0.5,0.2c-0.2,0.1-0.3,0.4-0.3,0.7H82.4L82.4,27.8z M83.6,28.4c0-0.6,0.2-1.2,0.5-1.5
		c0.4-0.4,0.8-0.6,1.4-0.6c0.5,0,0.9,0.1,1.2,0.4c0.3,0.3,0.4,0.7,0.4,1.1c0,0.6-0.2,1.1-0.5,1.5c-0.4,0.4-0.8,0.6-1.5,0.6
		c-0.3,0-0.6-0.1-0.9-0.2c-0.3-0.1-0.4-0.3-0.6-0.6C83.7,29,83.6,28.7,83.6,28.4L83.6,28.4z M86.3,27.7c0-0.2-0.1-0.4-0.2-0.5
		C86,27.1,85.8,27,85.6,27c-0.2,0-0.4,0.1-0.5,0.2c-0.2,0.1-0.3,0.3-0.4,0.5c-0.1,0.2-0.1,0.5-0.1,0.7c0,0.3,0.1,0.4,0.2,0.6
		c0.1,0.1,0.3,0.2,0.5,0.2c0.3,0,0.5-0.1,0.7-0.3C86.2,28.6,86.3,28.2,86.3,27.7L86.3,27.7z M92.7,29.9h-0.9l0.1-0.4
		c-0.2,0.2-0.3,0.3-0.5,0.4c-0.2,0.1-0.4,0.1-0.6,0.1c-0.4,0-0.7-0.1-0.9-0.4c-0.2-0.2-0.3-0.6-0.3-1.1c0-0.6,0.2-1.1,0.5-1.5
		c0.3-0.5,0.7-0.7,1.3-0.7c0.5,0,0.8,0.2,1.1,0.6l0.4-1.8h0.9L92.7,29.9L92.7,29.9z M90.5,28.4c0,0.3,0.1,0.4,0.2,0.6
		c0.1,0.1,0.3,0.2,0.5,0.2c0.2,0,0.3-0.1,0.5-0.2c0.1-0.1,0.3-0.3,0.4-0.5c0.1-0.2,0.1-0.5,0.1-0.7c0-0.3-0.1-0.5-0.2-0.6
		c-0.1-0.2-0.3-0.2-0.5-0.2c-0.3,0-0.5,0.2-0.7,0.5C90.6,27.8,90.5,28.1,90.5,28.4L90.5,28.4z M97,28.4h-2.4c0,0,0,0.1,0,0.1
		c0,0.2,0.1,0.4,0.2,0.6c0.1,0.1,0.3,0.2,0.5,0.2c0.3,0,0.6-0.2,0.7-0.5l0.8,0.1c-0.2,0.3-0.4,0.6-0.7,0.8C96,29.9,95.7,30,95.3,30
		c-0.5,0-0.9-0.1-1.1-0.4c-0.3-0.3-0.4-0.7-0.4-1.2c0-0.5,0.1-0.9,0.4-1.3c0.4-0.5,0.9-0.8,1.6-0.8c0.4,0,0.8,0.1,1,0.4
		c0.3,0.3,0.4,0.6,0.4,1.1C97.1,28,97.1,28.2,97,28.4L97,28.4z M96.2,27.8C96.2,27.8,96.2,27.8,96.2,27.8c0-0.4-0.1-0.5-0.2-0.7
		C95.9,27,95.8,27,95.6,27c-0.2,0-0.4,0.1-0.5,0.2c-0.2,0.1-0.3,0.4-0.3,0.7H96.2L96.2,27.8z M97.4,29.9l1-4.8h0.9l-1,4.8H97.4
		L97.4,29.9z M102.1,29.9h-1l1-4.8h2c0.3,0,0.6,0,0.8,0.1c0.2,0.1,0.4,0.2,0.5,0.4c0.1,0.2,0.2,0.4,0.2,0.7c0,0.2,0,0.5-0.1,0.7
		c-0.1,0.2-0.2,0.4-0.3,0.6s-0.3,0.2-0.4,0.3c-0.2,0.1-0.4,0.1-0.6,0.2c-0.2,0-0.4,0-0.9,0h-0.6L102.1,29.9L102.1,29.9z M102.7,27.2
		h0.3c0.5,0,0.9,0,1-0.1c0.2-0.1,0.3-0.2,0.4-0.3c0.1-0.1,0.2-0.3,0.2-0.5c0-0.1,0-0.2-0.1-0.3c-0.1-0.1-0.1-0.1-0.2-0.2
		c-0.1,0-0.3-0.1-0.6-0.1H103L102.7,27.2L102.7,27.2z M109,28.4h-2.4c0,0,0,0.1,0,0.1c0,0.2,0.1,0.4,0.2,0.6
		c0.1,0.1,0.3,0.2,0.5,0.2c0.3,0,0.6-0.2,0.7-0.5l0.8,0.1c-0.2,0.3-0.4,0.6-0.7,0.8c-0.3,0.2-0.6,0.3-0.9,0.3
		c-0.5,0-0.9-0.1-1.1-0.4c-0.3-0.3-0.4-0.7-0.4-1.2c0-0.5,0.1-0.9,0.4-1.3c0.4-0.5,0.9-0.8,1.6-0.8c0.4,0,0.8,0.1,1,0.4
		c0.3,0.3,0.4,0.6,0.4,1.1C109.1,28,109.1,28.2,109,28.4L109,28.4z M108.2,27.8C108.2,27.8,108.2,27.8,108.2,27.8
		c0-0.4-0.1-0.5-0.2-0.7c-0.1-0.1-0.3-0.2-0.5-0.2c-0.2,0-0.4,0.1-0.5,0.2c-0.2,0.1-0.3,0.4-0.3,0.7H108.2L108.2,27.8z M110,26.4
		h0.9l-0.1,0.7c0.3-0.5,0.7-0.8,1.1-0.8c0.1,0,0.3,0,0.4,0.1l-0.4,0.8c-0.1,0-0.2,0-0.3,0c-0.2,0-0.3,0.1-0.5,0.2
		c-0.2,0.1-0.3,0.3-0.4,0.5c-0.1,0.2-0.2,0.5-0.3,1l-0.2,1.1h-0.9L110,26.4L110,26.4z M112.7,26.4l-0.4,1.9
		c-0.1,0.4-0.1,0.6-0.1,0.7c0,0.3,0.1,0.5,0.2,0.7c0.2,0.2,0.4,0.2,0.7,0.2c0.5,0,0.9-0.2,1.3-0.6l-0.1,0.5h0.9l0.7-3.5h-0.9
		l-0.3,1.7c0,0.2-0.1,0.4-0.1,0.5c-0.1,0.1-0.1,0.2-0.2,0.3c-0.1,0.1-0.1,0.2-0.2,0.2c-0.1,0.1-0.2,0.1-0.2,0.1c-0.1,0-0.2,0-0.2,0
		c-0.1,0-0.2,0-0.3-0.1c-0.1-0.1-0.1-0.2-0.1-0.3c0-0.1,0-0.2,0.1-0.5l0.4-2.1H112.7L112.7,26.4z M114.5,24.9h1l-1.1,1h-0.6
		L114.5,24.9L114.5,24.9z M100.7,16.6l2.6-2.1c-1.8,3.9,2.5,4.2,6.2,3.1C105.6,19,101.6,18.8,100.7,16.6L100.7,16.6z M97.1,19.3
		c4.3,3,16.3-1.7,20.3-5.7c-6,5.5-19.5,8-17.5,3.5C98.9,17.9,98,18.6,97.1,19.3z"/>
	<path class="st2" d="M97.1,10.5H94l0.3-0.6h0l0.6-1.3l-2.7,0l-0.6,1.3h0l-0.3,0.6h-2.9l-0.8,1.9h2.9c-0.3,0.6-0.6,1.3-0.9,1.9h0
		l-2.2,5h0c-0.3,1,0.1,1.9,1.1,2.1h3.8l0.9-2.1h-3L92,15h0l0.3-0.7h0c0.3-0.6,0.5-1.3,0.8-1.9h3.2L97.1,10.5L97.1,10.5z M79.2,19.3
		l-5.1,0l-0.9,2.1l6.8,0c1.5,0,3.8-2.1,2.9-3.8l-3.3-3.5c-0.3-0.3-0.7-0.7-0.6-1.2c0.2-0.5,1-0.6,2.3-0.5l4.5,0l0.8-1.8
		c-1.9,0-4.5,0-6.5,0c-1.3,0-2.4,0.6-2.8,1.4c-0.2,0.3-0.4,0.7-0.5,1.1h0c0,0.4,0,0.9,0.4,1.3l3,3.3h0l0,0c0.3,0.2,0.5,0.4,0.4,0.9
		C80.6,18.9,80,19.4,79.2,19.3L79.2,19.3L79.2,19.3z M67,12.4c0.4-1.2,2.2-1.9,2.9-1.9h4.1c0.7,0,1.6,0.9,1.4,1.9h0l-3.1,6.9l0,0
		c-0.5,1.2-1.7,2-2.9,2l-4.7,0c-0.3,0-1.1-0.8-0.9-2.1c0,0,0,0,0,0l0.3-0.6h0l0.6-1.3h0l0.3-0.6h0C65.7,15.3,66.4,13.9,67,12.4
		L67,12.4L67,12.4z M69.8,19.3l0.3-0.6h0l2.7-6.3h-3.2L69.3,13h0c-0.9,2.1-1.8,4.2-2.7,6.3C67.7,19.3,68.8,19.3,69.8,19.3L69.8,19.3
		z M50.7,26h2.6l0.7-1.6l0,0c0.4-1,0.9-2,1.3-3h0l0.5-1.1c0.1,0.4,0.7,1,1.3,1.1h2.4c1.1-0.1,2.1-0.9,2.6-1.9h0l0,0
		c1.2-2.2,2.1-4.8,3.1-7.1h0c0,0,0,0,0,0l0,0l0,0c0.1-0.7,0.3-1.3-0.8-1.8h-2.5c-0.9,0.1-1.5,0.4-2.2,1l0.4-1h-2.6
		C55.1,15.6,53,20.8,50.7,26L50.7,26z M59.5,19.3h-3.3c1-2.3,2-4.7,3-7h3.3C61.6,14.7,60.5,17,59.5,19.3L59.5,19.3z M55.7,10.5
		l-0.8,1.8l-5.8,0c-0.4,0.9-0.8,1.8-1.2,2.6h0l-0.8,1.8h0l-0.3,0.6h0l-0.6,1.3h0L46,19.3h0l-0.9,2.1h-2.6c0.6-1.3,1.1-2.6,1.7-3.9h0
		c0.9-2,1.7-4,2.6-6l0,0l0.4-1l2.6,0l-0.4,0.9c0.8-0.7,1.3-0.9,2.3-1H55.7L55.7,10.5z M41.6,19.3h-5.8c0.4-0.8,0.8-1.7,1.1-2.5
		l4.2,0c1.7-0.2,2.1-1.1,2.4-1.8h0l1.2-2.6h0c0,0,0,0,0,0l0,0h0c0.2-0.6-0.4-1.8-1.2-1.8h-4.9c-0.8,0.2-1.6,0.5-2.4,1.8l0,0
		c-1.1,2.3-2.1,4.6-3.1,6.9l0,0c0,0,0,0,0,0l0,0l0,0c-0.2,0.6-0.1,1.6,0.8,2h6.7L41.6,19.3L41.6,19.3z M42,12.4L41.3,14l-0.1,0.3h0
		L40.8,15l-3.2,0l1.1-2.6H42L42,12.4z M27.5,19.3c1.1,0.1,2.3-0.6,1.6-1.9l0,0l0,0L25.6,13h0l-2.3-3.1h0c-0.5-0.6-0.5-1.7-0.1-2.3
		c0.3-0.6,1-1.5,3.5-1.6h10.8L36.6,8h-7.7c-0.5,0-3.9-0.2-3.5,1l6,7.8l0,0l0,0c1.2,1.9-1.1,4.6-3,4.6H15.6l0.9-2.1H27.5L27.5,19.3z
		 M109,10.4c0,0,0.1,0,0.1,0l0,0.1L109,10.4L109,10.4L109,10.4z M109.4,10.3c0.1,0.1,0.2,0.1,0.4,0.2l0.1,0l0,0.1l0,0.1l0.1,0
		l0.1-0.1l0,0l0.1,0l0.1,0l-0.1,0.1l0,0.1l-0.1,0l-0.1,0l-0.2,0l-0.1,0l-0.1,0.2l-0.1,0.2l0.2-0.2l0.1,0l0.1,0.1l0.1,0l0.1,0
		l-0.1,0.2l-0.1,0.1l0,0l0-0.1l-0.1,0l-0.1,0.1l-0.1,0.1l0,0.1l-0.1,0.2l-0.1,0.1l0,0.1l0,0.1l0-0.1l0,0.1c0.1,0.3-0.1,0.5-0.2,0.8
		l0.2,0.4l-0.1,0.1L109,13l-0.1-0.2l-0.4,0l-0.1,0.1l-0.4,0.1l-0.1,0.2l0.1,0.2l0,0.2l0.2,0.4l0.1,0.1l0.2-0.1l0.1-0.2l0.2-0.2
		c0,0.2,0,0.4,0.1,0.7l0.3-0.1l0.1,0.1l0,0.2l0.1,0.3l0.2,0.1l0.2-0.1l0.2,0l0-0.1l0.1-0.2l0.1,0l0,0.1l0,0.1l0.1,0l0,0l0-0.1l0-0.1
		l0.2-0.1l0.1,0.1c0.1-0.1,0.3-0.1,0.4-0.2l0.2,0.1l0,0.1l0.1,0l0.1,0.1l0,0.1l0,0.1l0.2,0c0.2-0.1,0.4-0.1,0.5,0.2l0,0l0,0.1
		l-0.1,0.1l0,0.1l0,0.1l0.1,0l0-0.1l0.1-0.1l0.4,0l0.1,0.1c0.1,0,0.3,0,0.4-0.1c0,0,0.1,0,0.1,0.1c0.5-0.3,1.1-0.6,1.6-0.9
		c0-0.1,0-0.2-0.1-0.3C114.3,11.7,111.9,10.1,109.4,10.3L109.4,10.3z M115,16c-0.2,2-1.6,3.8-3.5,4.4c0,0,0.1,0,0.1-0.1l-0.1-0.1
		l0.1-0.1l0-0.1l0.1-0.1l-0.1-0.1l0-0.1l0.1,0l0-0.1l0-0.2c0.1-0.1,0.2-0.1,0.4-0.2l0.1-0.2l-0.1,0l-0.1-0.1l0.2,0.1l0.2,0l0.2-0.1
		l0-0.2l0-0.1l0,0.2l0,0l0.1-0.1l0-0.3l0.1-0.2l-0.1-0.2l0.1-0.1l0.3-0.4l0.2-0.1l0-0.1l0-0.2l0.1-0.3C114,16.6,114.5,16.3,115,16
		L115,16z M111.1,20.5C111.1,20.5,111.1,20.5,111.1,20.5c-1.5,0.3-2.9,0-4-0.7c1.4-0.5,2.7-1,4-1.6c0,0.1,0,0.3,0,0.4
		c0.1,0.2,0.1,0.4,0.1,0.6l0,0.1c0,0.2,0,0.3,0,0.5l0.1,0.1l0,0.3l0,0.1l0,0.1L111.1,20.5L111.1,20.5z M105.1,17.3
		c-0.1-0.2-0.2-0.5-0.2-0.7c-0.4-1.5,0-3.1,0.9-4.2c0,0.1,0,0.3,0.1,0.4c0,0.2,0.2,0.3,0.4,0.4l0.1,0.2l0.1,0.1l0,0.1l0.2,0.1
		l0.2,0.3l0.1,0l0-0.1l-0.1-0.1l-0.1-0.1l-0.1-0.1l-0.1-0.2l-0.1-0.1l0-0.2l0.1,0.1l0.1,0.2l0.1,0l0.1,0.1l0.2,0.2l0.2,0.1
		c0.1,0.1,0.2,0.3,0.2,0.4l0.2,0.1c0.2,0,0.3,0.1,0.5,0.1l0.1-0.1l0.1,0.1l0.1,0.1l0.1,0l0.3,0.1l0.1-0.1l0,0.1l0.1,0.1
		c0.2,0.1,0.3,0.2,0.5,0.2l0-0.1l0.1-0.1l0.1,0.1l0,0c0,0.1,0.1,0.2,0.1,0.4l0,0.1l-0.1,0.2l-0.1,0.2l0,0.1l0,0.1l0.1,0l-0.1,0.2
		l0,0.1l0.1,0c0.1,0.1,0.2,0.2,0.2,0.3C108.1,17.4,106.1,17.7,105.1,17.3L105.1,17.3z M107.7,10.8c0.3-0.1,0.5-0.2,0.8-0.3l0,0
		l0.1,0l0.1,0.2l0,0.1l0.1,0.1l0.1,0.1l-0.1,0l-0.2,0l-0.1,0l-0.1-0.2l-0.3,0.1l-0.2,0l-0.1,0L107.7,10.8L107.7,10.8z"/>
</g>
</svg>
